<svg width="640" height="480" viewBox="0 0 640 480" fill="none" xmlns="http://www.w3.org/2000/svg">
  <rect width="640" height="480" rx="40" fill="#F7EFE5"/>
  <rect x="36" y="36" width="568" height="408" rx="32" fill="#F8F2E9"/>
  <rect x="120" y="102" width="400" height="268" rx="34" fill="#D7E3F4"/>
  <ellipse cx="252" cy="196" rx="88" ry="54" transform="rotate(-14 252 196)" fill="#C98534"/>
  <ellipse cx="392" cy="180" rx="86" ry="52" transform="rotate(15 392 180)" fill="#D8943A"/>
  <ellipse cx="236" cy="292" rx="86" ry="54" transform="rotate(12 236 292)" fill="#CC8C39"/>
  <ellipse cx="388" cy="284" rx="90" ry="56" transform="rotate(-12 388 284)" fill="#BE7D2B"/>
  <circle cx="284" cy="232" r="42" fill="#F8F5EE"/>
  <circle cx="394" cy="236" r="38" fill="#F8F5EE"/>
  <circle cx="284" cy="232" r="22" fill="#D8D0C4"/>
  <circle cx="394" cy="236" r="20" fill="#D8D0C4"/>
  <path d="M160 362C196 330 246 314 308 316" stroke="#84B364" stroke-width="14" stroke-linecap="round"/>
  <path d="M430 126C466 140 494 164 510 196" stroke="#F3C74A" stroke-width="12" stroke-linecap="round"/>
</svg>
